<?xml version="1.0" encoding="UTF-8" standalone="no"?>
<svg
   xmlns:dc="http://purl.org/dc/elements/1.1/"
   xmlns:cc="http://creativecommons.org/ns#"
   xmlns:rdf="http://www.w3.org/1999/02/22-rdf-syntax-ns#"
   xmlns:svg="http://www.w3.org/2000/svg"
   xmlns="http://www.w3.org/2000/svg"
   xmlns:sodipodi="http://sodipodi.sourceforge.net/DTD/sodipodi-0.dtd"
   xmlns:inkscape="http://www.inkscape.org/namespaces/inkscape"
   inkscape:export-ydpi="199.96599"
   inkscape:export-xdpi="199.96599"
   inkscape:export-filename="/Users/fia/Party Stuff/Logos/yellow-logo.png"
   sodipodi:docname="SA-logo-full-yellow.svg"
   viewBox="0 0 1783 610.75384"
   height="610.75385"
   width="1783"
   inkscape:version="1.0 (4035a4f, 2020-05-01)"
   version="1.1"
   id="svg21908">
  <metadata
     id="metadata21914">
    <rdf:RDF>
      <cc:Work
         rdf:about="">
        <dc:format>image/svg+xml</dc:format>
        <dc:type
           rdf:resource="http://purl.org/dc/dcmitype/StillImage" />
        <dc:title />
      </cc:Work>
    </rdf:RDF>
  </metadata>
  <defs
     id="defs21912" />
  <sodipodi:namedview
     inkscape:document-rotation="0"
     fit-margin-bottom="0"
     fit-margin-right="0"
     fit-margin-left="0"
     fit-margin-top="0"
     inkscape:current-layer="svg21908"
     inkscape:window-maximized="0"
     inkscape:window-y="23"
     inkscape:window-x="0"
     inkscape:cy="320.37144"
     inkscape:cx="915.58065"
     inkscape:zoom="0.155"
     showgrid="false"
     id="namedview21910"
     inkscape:window-height="632"
     inkscape:window-width="1175"
     inkscape:pageshadow="2"
     inkscape:pageopacity="0"
     guidetolerance="10"
     gridtolerance="10"
     objecttolerance="10"
     borderopacity="1"
     bordercolor="#666666"
     pagecolor="#ffffff" />
  <path
     inkscape:export-ydpi="199.96599"
     inkscape:export-xdpi="199.96599"
     inkscape:connector-curvature="0"
     id="path22482"
     d="m 1565.1309,326.48288 c -3.5031,-0.79436 -9.1281,-2.78676 -12.5,-4.42755 -14.3019,-6.95927 -17.8862,-11.69934 -18.4837,-24.44376 -0.4274,-9.11537 0.8638,-16.58625 4.9357,-28.55802 3.3754,-9.92392 3.9095,-19.23006 1.3162,-22.93257 -2.4246,-3.4616 -5.9013,-4.32191 -17.3991,-4.30543 -11.571,0.0166 -22.8056,1.98186 -32.9031,5.75579 -3.6283,1.35608 -12.6719,4.64857 -20.0969,7.31666 -16.2656,5.84486 -42.1964,16.31364 -54.3898,21.95827 -4.8895,2.26343 -9.277,4.11532 -9.75,4.11532 -0.4744,0 -0.8602,-43.73465 -0.8602,-97.5 V 85.961582 h 17.4182 c 9.58,0 18.13,-0.27314 19,-0.60699 1.34,-0.5142 1.5822,0.36476 1.5846,5.75 0,3.49635 0.4924,10.348788 1.0908,15.227668 l 1.0879,8.87068 -3.0581,2.79316 c -2.9091,2.65698 -9.1234,11.55796 -9.1234,13.06765 0,0.39083 0.8928,0.47713 1.984,0.19179 3.7139,-0.97122 6.846,0.69568 12.1283,6.45464 12.9473,14.11576 26.0708,25.78678 44.1162,39.23365 l 19.4349,14.48223 12.8283,17.27442 c 7.0556,9.50094 12.9782,17.12455 13.1614,16.94138 0.1831,-0.18318 -0.6137,-3.13636 -1.7707,-6.56262 -1.1571,-3.42627 -1.8411,-6.49225 -1.5201,-6.8133 0.3211,-0.32104 5.4334,2.1246 11.3607,5.43477 5.9274,3.31017 14.377,7.93655 18.777,10.28084 l 8,4.26236 -4.3204,-3.77934 c -12.9534,-11.3312 -42.848,-50.17161 -51.1674,-66.47904 -2.3596,-4.62513 -2.4191,-5.0187 -0.7622,-5.04003 2.5661,-0.033 21.0018,-9.008 31.5148,-15.3422 13.5428,-8.15973 33.3868,-22.42938 51.8873,-37.3118 16.2039,-13.034968 23.6617,-19.744898 21.0162,-18.908878 -1.0074,0.31837 -12.9821,3.04814 -26.6104,6.06614 -39.3099,8.705208 -73.7808,14.480778 -95.5579,16.010668 l -9,0.63227 -5.229,-7.39983 c -9.894,-14.001368 -21.1184,-35.445198 -29.8381,-57.004608 -6.2527,-15.45999 -6.24,-15.52424 3.8336,-19.36441 4.5284,-1.726301 14.707,-5.902681 22.619,-9.280841 32.5388,-13.8929894 56.4511,-17.9418194 77.1145,-13.0570394 17.6346,4.1687796 23.1454,7.9299196 26.572,18.1353494 2.2613,6.734801 2.2899,19.059971 0.064,27.672031 -3.4652,13.40786 -3.8814,13.17163 23.1852,13.15956 62.5763,-0.0279 103.852,-6.33273 138.6786,-21.18295 l 8,-3.41124 0.024,47.05193 c 0.019,37.034328 0.4011,51.097138 1.7939,66.051938 3.8417,41.24731 8.4463,66.82518 18.0023,100 1.2211,4.23943 5.8399,17.1004 8.123,22.61858 0.4446,1.07437 0.062,1.80474 -1.1368,2.17225 -0.9936,0.30452 -6.7566,2.65192 -12.8066,5.21643 -49.357,20.92177 -105.3239,38.51139 -145.0466,45.5861 -15.6711,2.79107 -47.7836,3.59101 -57.3225,1.42793 z"
     style="fill:#fefff5;fill-opacity:1" />
  <path
     inkscape:export-ydpi="199.96599"
     inkscape:export-xdpi="199.96599"
     inkscape:connector-curvature="0"
     d="m 1319.994,199.71159 c 0,-58.4375 -0.295,-109.962508 -0.6482,-114.500008 l -0.6422,-8.25 H 1296.8518 1275 v -29 -29.000001 l 63.25,-0.003 c 34.7875,-0.002 71.6875,-0.2977 82,-0.65811 l 18.75,-0.65528 v 29.658111 29.65811 h -22.1597 -22.1596 l 0.5909,114.500008 0.5908,114.5 H 1357.9312 1320 l -0.01,-106.25 z M 1003,163.46159 V 19.961581 h 37.335 37.3349 l 0.6651,102.165579 c 0.3657,56.19107 0.665,120.76607 0.665,143.5 v 41.33443 h -38 -38 z M 867.66658,263.87156 c -0.36526,-24.42548 -0.66467,-89.29747 -0.66535,-144.15997 l -10e-4,-99.750009 h 37.33687 37.3368 l 0.6632,46.664251 c 0.3647,25.66533 0.6631,77.190338 0.6631,114.500008 v 67.83575 h 22.4429 22.4429 l 0.3071,28.75 c 0.1689,15.8125 0.2498,28.88234 0.1797,29.04409 -0.07,0.16175 -27.1082,0.57124 -60.0847,0.90998 l -59.95717,0.61588 -0.66412,-44.40998 z M 769.30944,184.21159 C 766.29517,156.74839 761,99.656802 761,94.620742 c 0,-2.19587 -0.19335,-3.79914 -0.42967,-3.56282 -0.23632,0.23631 -2.24981,14.823808 -4.47441,32.416668 -3.44219,27.2218 -4.94143,40.71121 -8.52871,76.737 l -0.47298,4.75 h 12.24633 12.24633 z M 666,306.57717 c 0,-0.76143 1.11156,-9.64893 2.47012,-19.75 1.35857,-10.10107 8.79947,-67.64058 16.53534,-127.86558 15.5827,-121.313928 17.65672,-137.016859 18.15364,-137.445819 0.18749,-0.16185 24.63851,-0.46526 54.33558,-0.67423 l 53.99468,-0.37996 3.1729,20.500001 c 1.74509,11.275 9.08251,59.424998 16.30538,107.000008 7.22287,47.575 15.58496,102.58268 18.58243,122.2393 2.99746,19.65661 5.44993,36.19411 5.44993,36.75 0,0.6634 -13.20468,1.0107 -38.42804,1.0107 h -38.42805 l -0.57703,-5.25 c -0.31737,-2.8875 -1.02575,-11.775 -1.57418,-19.75 -0.54843,-7.975 -1.26532,-17.0875 -1.59311,-20.25 l -0.59596,-5.75 h -12.90182 c -11.61568,0 -12.90314,0.17445 -12.91518,1.75 -0.007,0.9625 -0.9061,12.325 -1.99722,25.25 -1.09111,12.925 -1.98509,23.6125 -1.98662,23.75 -0.002,0.1375 -17.55279,0.25 -39.00279,0.25 -32.55285,0 -39,-0.22886 -39,-1.38442 z M 577.66174,275.79835 C 577.29778,257.55856 577,192.75856 577,131.79835 V 20.961581 h 37.33622 37.33621 l 0.66379,57.164701 C 652.7013,109.56686 653,174.07142 653,221.46973 v 86.17874 l -15.75,0.65323 c -8.6625,0.35927 -25.46472,0.65473 -37.33826,0.65656 l -21.58827,0.003 -0.66173,-33.16324 z m 590.33996,36.10754 c -28.1974,-3.53257 -51.5609,-17.15378 -60.5185,-35.28305 -5.8259,-11.79103 -7.5846,-22.4964 -8.1994,-49.91129 l -0.5326,-23.75 h 35.0374 35.0373 l 0.3461,25.75 c 0.3014,22.41898 0.5776,26.17598 2.135,29.04296 2.0575,3.78761 5.0658,5.20704 11.0356,5.20704 5.2122,0 8.0668,-1.92206 10.794,-7.26783 4.3272,-8.48197 3.3415,-32.92534 -1.7536,-43.48727 -3.0868,-6.39874 -10.0585,-12.02342 -38.4513,-31.02201 -36.8169,-24.63548 -44.1208,-31.71785 -50.9367,-49.39216 -8.7075,-22.57932 -7.8515,-64.950758 1.7065,-84.473228 11.7308,-23.96021 47.4634,-37.5791608 87.7985,-33.463041 15.9614,1.62884 26.6125,4.46068 38.0689,10.121531 16.0029,7.90741 24.0886,17.08314 27.807,31.5554 2.1269,8.27796 3.6241,24.40407 3.6241,39.03455 v 12.394048 h -35 -35 V 92.598032 c 0,-24.11595 -2.1274,-29.63645 -11.4209,-29.63645 -9.3063,0 -13.026,7.43225 -12.4282,24.83259 0.627,18.251388 3.9086,22.627718 27.8491,37.138698 34.154,20.70167 53.8386,36.54568 61.3692,49.39565 7.3984,12.62445 10.9024,31.38226 10.9528,58.63307 0.041,22.28883 -1.5814,33.5114 -6.3267,43.75853 -7.2676,15.69399 -26.378,28.33282 -50.4736,33.38134 -10.6366,2.22857 -31.9238,3.13196 -42.52,1.80447 z m -716.82543,1.98139 c -11.26143,-1.46146 -22.46801,-4.79477 -32.13305,-9.55774 -7.58924,-3.74 -10.94642,-6.16195 -17,-12.26416 -8.78038,-8.85093 -13.04861,-16.66848 -15.97659,-29.26223 -4.29455,-18.47154 -4.56678,-24.75571 -4.56344,-105.3416 0.003,-69.590008 0.17042,-77.718378 1.74099,-84.464828 9.06331,-38.93187 46.56882,-61.146661 96.34415,-57.065321 18.81878,1.54304 32.10775,5.51734 44.70789,13.370661 13.19519,8.22421 22.58352,19.15405 26.66862,31.04747 4.6638,13.57821 7.02866,36.39785 7.03273,67.862018 l 0.002,18.75004 h -38 -38 v -33.36351 c 0,-18.349938 -0.44847,-35.787438 -0.99659,-38.750008 -1.31646,-7.11536 -4.3489,-9.8879 -10.80917,-9.88275 -6.27549,0.005 -10.71006,2.77795 -12.3048,7.69424 -1.60392,4.94457 -2.3253,102.069678 -1.11263,149.802028 0.92369,36.35777 1.30573,38.86825 6.32351,41.55369 3.37121,1.80422 10.86823,1.36029 13.78334,-0.81615 4.54342,-3.39216 5.24662,-8.26534 5.84233,-40.48754 l 0.55,-29.75 h 37.50731 37.50732 l -0.58533,24.25 c -1.08146,44.80442 -5.21898,58.71126 -22.19118,74.58792 -12.28186,11.48908 -28.31184,18.97418 -46.50998,21.71754 -10.18662,1.53564 -27.53917,1.70548 -37.82786,0.37027 z M 281.1504,264.88106 c 1.1104,-0.59427 2.76832,-2.73177 3.68426,-4.75 1.50269,-3.31111 1.69397,-11.72715 1.95849,-86.16951 0.30717,-86.445188 -0.16854,-100.339908 -3.59287,-104.942508 -2.61816,-3.51905 -10.64848,-4.15188 -13.92696,-1.09751 -4.77318,4.44689 -4.79424,4.90092 -4.4561,96.040018 0.17448,47.025 0.72398,88.2 1.22112,91.5 0.68021,4.51524 1.54349,6.55679 3.48854,8.25 2.81804,2.45317 8.21107,2.9958 11.62352,1.16951 z M 262.60482,314.863 c -30.26027,-3.19085 -52.77311,-17.24093 -63.97,-39.92318 -6.20336,-12.56654 -7.39285,-19.03711 -8.72039,-47.43702 -1.41645,-30.30191 -0.66087,-137.711138 1.04493,-148.541258 2.63155,-16.70772 8.45857,-28.32034 20.13747,-40.13181 6.39412,-6.4667 9.24383,-8.48064 18,-12.72088 5.72174,-2.77079 13.10317,-5.712991 16.40317,-6.538211 16.42507,-4.10736 38.45532,-4.55299 55,-1.11253 32.51692,6.761861 54.85351,29.142911 59.4769,59.595281 1.73604,11.43455 3.12918,114.712548 1.97494,146.408158 -1.18755,32.61009 -2.45247,40.05392 -8.75135,51.5 -12.65809,23.00178 -34.0397,35.75436 -65.33155,38.96551 -11.19311,1.14863 -13.82693,1.14195 -25.26412,-0.0641 z M 69.81396,314.8836 C 59.38724,313.35407 51.58922,310.89576 41.5,305.95769 29.18994,299.93265 21.3557,293.74395 16.12734,285.91443 7.62476,273.18171 5.03782,260.80288 4.27755,229.21159 l -0.53548,-22.25 h 35.02779 35.02779 l 0.39985,24.75 c 0.46,28.47329 1.05935,31.20589 7.42817,33.86695 6.92578,2.89378 13.84983,0.0952 16.98238,-6.8641 2.65577,-5.90005 2.673,-29.42725 0.028,-38.25285 -2.59293,-8.65186 -9.6357,-15.0144 -37.10733,-33.52324 C 22.80837,160.85075 16.62211,155.33603 9.52443,140.57934 2.44251,125.85542 -0.41375,103.06873 1.92614,79.961582 3.99128,59.567642 7.60879,49.738482 16.63924,39.984522 31.23329,24.221212 52.31949,16.974521 83.619,16.965601 c 28.83427,-0.008 51.37967,6.929261 65.97175,20.300261 11.9048,10.90858 15.16162,21.6223 16.09477,52.94572 l 0.58837,19.749998 H 131.13695 96 V 95.010802 c 0,-23.97786 -1.79129,-28.54922 -11.18702,-28.54922 -4.34033,0 -5.34405,0.41076 -7.84592,3.21084 -4.0596,4.54348 -5.26783,10.08882 -4.75408,21.81951 0.77327,17.656308 4.77863,23.060738 26.78702,36.143728 25.65175,15.24879 49.36679,32.8871 57.10008,42.46876 10.82056,13.40684 15.31357,29.384 16.55149,58.85717 0.95693,22.78312 -1.73343,42.29948 -7.36522,53.4286 -7.53106,14.88232 -30.04131,28.07071 -54.78635,32.09844 -9.62506,1.56666 -31.26655,1.77675 -40.68604,0.39497 z M 1652.9994,554.87154 c -4e-4,-28.27547 -0.2991,-90.83489 -0.6638,-139.02093 l -0.6631,-87.61098 5.4138,-1.29019 c 2.9775,-0.70961 11.488,-3.02217 18.9121,-5.13902 l 13.4984,-3.84883 H 1733.2484 1777 v 18.34444 c 0,10.08944 0.2934,23.13944 0.652,29 l 0.6519,10.65556 H 1753.152 1728 v 26.48157 26.48157 l 23.25,0.26843 23.25,0.26843 0.2658,27.75 0.2658,27.75 H 1751.5158 1728 v 31 31 h 27.5 27.5 v 29 29 h -40.8381 c -22.4609,0 -51.7109,0.29698 -65,0.65995 L 1653,606.28148 Z m -171.8593,3.34814 c -4.02,-26.26695 -13.7961,-90.03766 -21.7246,-141.7127 C 1451.487,364.83194 1445,321.8152 1445,320.91421 c 0,-1.47969 3.7954,-1.69519 39.2343,-2.22776 21.5789,-0.32428 39.389,-0.43493 39.578,-0.24588 1.0159,1.01585 13.5813,119.67158 18.1109,171.02102 1.0188,11.55 1.9029,19.93025 1.9646,18.62279 0.7283,-15.4321 7.888,-102.64897 12.2691,-149.45955 l 2.231,-23.83677 3.056,0.48274 c 17.676,2.7921 22.1754,3.01617 37.0873,1.84693 8.4006,-0.65868 20.5226,-2.13328 26.9379,-3.27688 6.4153,-1.1436 11.8045,-1.92177 11.9759,-1.72926 0.1715,0.1925 -7.621,61.775 -17.3166,136.85 l -17.6284,136.5 -57.0254,0.25809 -57.0254,0.25809 z m -124.1419,-52.75809 c -4e-4,-55.55 -0.2984,-120.2375 -0.6623,-143.75 l -0.6616,-42.75 h 38.0046 38.0047 l 0.5803,143.24452 c 0.3192,78.78449 0.4999,143.32504 0.4015,143.42345 -0.098,0.0984 -17.1637,0.32587 -37.9227,0.50548 l -37.7438,0.32655 z m -133.9989,65.75 c -4e-4,-19.6625 -0.2994,-71.1875 -0.6646,-114.5 l -0.6638,-78.75 H 1199.8354 1178 v -28 -28 l 8.25,-0.0317 c 4.5375,-0.0174 12.975,-0.67817 18.75,-1.46832 8.1842,-1.11978 24.4499,-1.44362 73.75,-1.46832 l 63.25,-0.0317 v 29 29 h -22 -22 v 115 115 h -37.5 -37.5 l -7e-4,-35.75 z m -116.3808,-69 C 1105.4714,498.32344 1096,401.46078 1096,393.61759 c 0,-2.19413 -0.1952,-3.79411 -0.4338,-3.55551 -0.6404,0.64039 -9.2474,70.73455 -11.0389,89.89951 -0.8483,9.075 -1.7212,18.1875 -1.9397,20.25 l -0.3973,3.75 h 12.4722 c 11.4084,0 12.4282,-0.14928 11.956,-1.75 z M 1001,606.97471 c 0,-1.53571 35.7506,-279.24404 36.5301,-283.76312 l 0.5605,-3.25 h 54.3188 54.3188 l 0.5973,4.25 c 0.3285,2.3375 4.6747,31.025 9.6581,63.75 21.2223,139.36089 33.0164,217.27331 33.0164,218.1076 0,0.50772 -16.5649,0.8924 -38.428,0.8924 h -38.4281 l -0.5561,-5.25 c -0.3059,-2.8875 -1.0158,-11.775 -1.5776,-19.75 -0.5617,-7.975 -1.288,-17.0875 -1.614,-20.25 l -0.5926,-5.75 h -12.9018 c -12.7082,0 -12.902,0.0338 -12.9181,2.25 -0.025,3.49216 -3.91,48.01233 -4.2139,48.2926 -0.1484,0.13682 -17.7073,0.57892 -39.0198,0.98245 -30.6531,0.58037 -38.75,0.4734 -38.75,-0.51193 z M 820.66507,504.296 C 820.29928,447.27993 820,382.77539 820,360.95258 V 321.27474 L 851.15184,320.57 c 17.13351,-0.3876 31.46697,-0.34556 31.85214,0.0934 0.38517,0.43899 5.823,16.54816 12.08402,35.79816 6.2611,19.25 15.2889,46.7 20.0618,61 l 8.6779,26 0.086,-61.75 0.086,-61.75 h 31.3415 31.3416 l 0.6584,19.66081 c 0.3622,10.81344 0.6585,75.61344 0.6585,144 L 988,607.96159 h -32.9528 -32.9527 l -1.877,-6.25 c -1.0324,-3.4375 -9.4911,-31.5578 -18.7973,-62.48954 L 884.5,482.9825 l -0.25751,62.48955 -0.25752,62.48954 H 852.65756 821.33014 Z M 722,431.12469 c 5.99799,-2.85007 6.5,-5.06381 6.5,-28.6631 0,-18.19012 -0.23642,-21.4326 -1.76693,-24.23307 -2.28415,-4.17947 -6.19594,-6.13693 -13.8662,-6.93863 -6.16564,-0.64444 -6.18145,-0.63941 -5.53873,1.76271 0.3545,1.32494 0.6507,15.61372 0.65821,31.75283 l 0.0136,29.34384 5.25,-0.68074 c 2.8875,-0.3744 6.825,-1.42913 8.75,-2.34384 z m -89.33552,127.5869 c -0.36427,-27.6375 -0.6628,-92.4375 -0.66339,-144 l -10e-4,-93.75 40.75,0.005 c 44.06408,0.005 69.14765,1.10383 81.75,3.58113 21.47754,4.22193 36.44527,19.67794 42.04269,43.41422 1.27542,5.40854 1.89328,13.21667 2.21565,28 0.95275,43.69179 -5.64057,56.55154 -31.47089,61.38149 -6.65105,1.24366 -6.7129,1.28348 -3.07786,1.98157 2.04028,0.39182 7.29763,2.50827 11.683,4.70322 9.0229,4.51611 15.44726,10.84115 19.56976,19.26723 3.68224,7.52623 4.48803,21.34291 4.51496,77.41649 l 0.0227,47.24965 h -35 -35 l -0.0163,-48.25 c -0.0173,-51.32837 -0.8364,-68.63063 -3.49209,-73.76616 -1.85472,-3.58663 -5.68339,-5.43401 -13.24164,-6.38923 l -5.25,-0.6635 v 65.03445 65.03444 h -37.3366 -37.33661 l -0.66231,-50.25 z m -147.0878,-91.87327 c -0.52506,-102.20515 -0.42373,-142.42968 0.36077,-143.21418 1.29053,-1.29053 42.80296,-2.46726 91.15477,-2.58392 l 32.59221,-0.0786 0.60312,28.68395 c 0.33171,15.77617 0.37616,29.05117 0.0988,29.5 -0.27743,0.44883 -11.50283,0.81605 -24.94537,0.81605 H 561 v 26.5 26.5 h 23.5 23.5 v 27.36916 27.36916 l -3.75,0.61983 c -2.0625,0.34091 -12.6375,0.62479 -23.5,0.63084 l -19.75,0.011 v 31.12313 31.12314 l 27.5,-0.41679 27.5,-0.41679 v 29.29366 29.29365 H 551.15341 486.30682 L 485.57668,466.83834 Z M 351.6629,566.29751 C 351.29831,542.28227 351,490.46754 351,451.15367 v -71.47975 l -22,0.72032 -22,0.72032 v -29.61927 -29.61926 l 72.75,0.48349 c 40.0125,0.26592 76.8,0.84767 81.75,1.29278 l 9,0.80929 0.26582,27.75 0.26582,27.75 -22.26582,-1.5e-4 -22.26582,-1.4e-4 0.27829,114.33981 0.27829,114.3398 -22.6899,0.66034 c -12.47944,0.36319 -29.29386,0.66034 -37.36538,0.66034 H 352.32581 Z M 201.66362,555.797 C 201.29863,526.00648 201,461.47758 201,412.39945 v -89.23297 l 13.28072,-0.71131 c 15.51645,-0.83105 33.51759,-0.26283 49.81088,1.57234 l 11.59161,1.3056 0.65839,34.47763 C 276.70372,378.77344 277,429.68132 277,472.93936 v 78.65098 l 22.33957,-0.44018 22.33957,-0.44017 0.60576,28.80975 c 0.33317,15.84536 0.37881,29.17697 0.10141,29.6258 -0.27739,0.44883 -27.40416,0.81605 -60.2817,0.81605 h -59.77736 z m -96.1325,-51.08541 c -0.80474,-3.57143 -3.36343,-28.03681 -7.50392,-71.75 -2.10988,-22.275 -3.87914,-39.825 -3.9317,-39 -0.0526,0.825 -1.20241,9.86829 -2.55522,20.09619 -3.13295,23.68653 -8.24042,68.84106 -9.038,79.90381 -0.33704,4.675 -0.82151,9.5125 -1.0766,10.75 -0.46138,2.23836 -0.39891,2.25 12.07432,2.25 12.48603,0 12.536,-0.009 12.03112,-2.25 z M 0,610.11069 c 0,-1.01271 0.54257,-5.25544 21.43917,-167.6491 7.99738,-62.15 14.80111,-114.51842 15.11939,-116.37426 l 0.57869,-3.37426 17.68137,0.75486 c 22.1086,0.94387 45.96695,0.94261 71.25933,-0.004 l 19.57796,-0.73256 1.14537,7.86499 c 0.62995,4.32575 6.11888,40.48999 12.19762,80.36499 6.07873,39.875 12.37874,81.275 14.00002,92 1.62128,10.725 5.88477,38.78453 9.47443,62.3545 3.58966,23.57022 6.52665,43.25772 6.52665,43.75024 0,0.51179 -16.4549,0.8955 -38.40181,0.8955 h -38.40182 l -0.58916,-5.75 c -0.32404,-3.1625 -1.04728,-12.05 -1.60721,-19.75 -0.55993,-7.7 -1.28317,-16.5875 -1.60721,-19.75 l -0.58916,-5.75 H 94.90181 c -12.70816,0 -12.90205,0.0338 -12.9181,2.25 -0.0408,5.63674 -4.01014,48.10987 -4.54631,48.64691 C 76.42707,610.87047 0,611.11938 0,610.11069 Z"
     style="fill:#fefff5;fill-opacity:1"
     id="path22458" />
</svg>
